<svg width="56" height="50" viewBox="0 0 56 50" fill="none" xmlns="http://www.w3.org/2000/svg">
<g filter="url(#filter0_d_15_191)">
<path d="M44.634 8.31121C41.5747 6.90744 38.294 5.87321 34.8638 5.28087C34.8013 5.26943 34.7389 5.298 34.7067 5.35514C34.2848 6.10557 33.8175 7.08457 33.4902 7.85406C29.8008 7.30172 26.1304 7.30172 22.5166 7.85406C22.1893 7.06747 21.705 6.10557 21.2811 5.35514C21.249 5.29991 21.1866 5.27134 21.1241 5.28087C17.6958 5.87132 14.4151 6.90555 11.3539 8.31121C11.3274 8.32263 11.3047 8.3417 11.2896 8.36644C5.06678 17.6632 3.3621 26.7314 4.19836 35.6872C4.20214 35.731 4.22674 35.7729 4.2608 35.7995C8.36642 38.8146 12.3434 40.645 16.2466 41.8583C16.309 41.8773 16.3752 41.8545 16.415 41.803C17.3383 40.5422 18.1613 39.2127 18.867 37.8146C18.9086 37.7328 18.8688 37.6356 18.7837 37.6032C17.4783 37.108 16.2352 36.5042 15.0395 35.8186C14.9449 35.7634 14.9373 35.6281 15.0243 35.5633C15.2759 35.3748 15.5276 35.1786 15.7679 34.9805C15.8114 34.9443 15.872 34.9367 15.9231 34.9595C23.7786 38.5461 32.2831 38.5461 40.0459 34.9595C40.097 34.9348 40.1576 34.9424 40.203 34.9786C40.4433 35.1767 40.6949 35.3748 40.9484 35.5633C41.0354 35.6281 41.0298 35.7634 40.9352 35.8186C39.7394 36.5176 38.4964 37.108 37.189 37.6014C37.1039 37.6337 37.0661 37.7328 37.1077 37.8146C37.8285 39.2108 38.6515 40.5402 39.5578 41.8012C39.5956 41.8545 39.6637 41.8773 39.7262 41.8583C43.6483 40.645 47.6252 38.8146 51.7309 35.7995C51.7668 35.7729 51.7895 35.7329 51.7933 35.6891C52.7942 25.3352 50.117 16.3413 44.6964 8.36833C44.6832 8.3417 44.6605 8.32263 44.634 8.31121ZM20.04 30.234C17.675 30.234 15.7263 28.0627 15.7263 25.3962C15.7263 22.7296 17.6372 20.5583 20.04 20.5583C22.4617 20.5583 24.3916 22.7487 24.3538 25.3962C24.3538 28.0627 22.4428 30.234 20.04 30.234ZM35.9895 30.234C33.6245 30.234 31.6758 28.0627 31.6758 25.3962C31.6758 22.7296 33.5867 20.5583 35.9895 20.5583C38.4113 20.5583 40.3411 22.7487 40.3033 25.3962C40.3033 28.0627 38.4113 30.234 35.9895 30.234Z" fill="white"/>
</g>
<defs>
<filter id="filter0_d_15_191" x="0" y="0" width="56" height="56" filterUnits="userSpaceOnUse" color-interpolation-filters="sRGB">
<feFlood flood-opacity="0" result="BackgroundImageFix"/>
<feColorMatrix in="SourceAlpha" type="matrix" values="0 0 0 0 0 0 0 0 0 0 0 0 0 0 0 0 0 0 127 0" result="hardAlpha"/>
<feOffset dy="4"/>
<feGaussianBlur stdDeviation="2"/>
<feComposite in2="hardAlpha" operator="out"/>
<feColorMatrix type="matrix" values="0 0 0 0 1 0 0 0 0 1 0 0 0 0 1 0 0 0 0.25 0"/>
<feBlend mode="normal" in2="BackgroundImageFix" result="effect1_dropShadow_15_191"/>
<feBlend mode="normal" in="SourceGraphic" in2="effect1_dropShadow_15_191" result="shape"/>
</filter>
</defs>
</svg>
